<?xml version="1.0" standalone="no"?>
<!DOCTYPE svg PUBLIC "-//W3C//DTD SVG 20010904//EN"
 "http://www.w3.org/TR/2001/REC-SVG-20010904/DTD/svg10.dtd">
<svg version="1.0" xmlns="http://www.w3.org/2000/svg"
 width="1290.000000pt" height="1247.000000pt" viewBox="0 0 1290.000000 1247.000000"
 preserveAspectRatio="xMidYMid meet">

<g transform="translate(0.000000,1247.000000) scale(0.100000,-0.100000)"
fill="#000000" stroke="none">
<path d="M5920 11309 c-185 -11 -443 -45 -610 -80 -52 -11 -113 -23 -135 -25
-22 -3 -49 -9 -60 -13 -11 -5 -54 -16 -95 -25 -86 -20 -88 -21 -270 -76 -149
-46 -420 -145 -518 -191 -35 -16 -66 -29 -69 -29 -14 0 -351 -172 -458 -233
-133 -77 -172 -101 -355 -223 -409 -273 -838 -674 -1160 -1084 -101 -128 -103
-130 -233 -317 -60 -87 -193 -306 -252 -418 -96 -180 -215 -424 -215 -440 0
-3 -9 -24 -19 -48 -11 -23 -34 -80 -51 -127 -18 -47 -37 -94 -41 -105 -11 -26
-61 -180 -89 -275 -12 -41 -26 -86 -31 -100 -4 -14 -17 -65 -29 -115 -11 -49
-24 -106 -30 -125 -15 -56 -20 -80 -36 -170 -25 -135 -32 -179 -44 -275 -6
-49 -15 -119 -20 -155 -50 -346 -31 -1036 39 -1425 38 -211 67 -337 126 -560
21 -80 78 -260 95 -300 5 -11 32 -83 61 -160 64 -171 109 -273 209 -475 50
-100 57 -113 153 -280 57 -100 167 -270 252 -390 76 -108 234 -311 265 -340 3
-3 23 -27 45 -55 41 -52 410 -425 480 -486 136 -118 199 -169 322 -261 76 -57
181 -133 233 -167 52 -35 106 -71 120 -81 56 -37 277 -164 365 -209 28 -14 52
-29 53 -33 2 -5 7 -8 12 -8 8 0 228 -101 262 -120 10 -6 22 -10 27 -10 5 0 38
-13 73 -29 145 -66 352 -137 598 -205 412 -115 727 -165 1187 -187 221 -11
284 -11 510 4 315 21 600 57 768 96 22 6 74 17 115 27 187 41 418 110 635 188
96 35 110 40 165 64 14 6 59 25 100 43 445 188 956 509 1335 838 198 172 449
425 580 585 22 27 45 54 50 60 61 65 310 411 389 541 27 44 56 91 65 105 57
89 235 437 304 595 39 87 116 291 142 370 9 28 20 59 25 70 26 56 127 441 154
590 9 50 21 106 26 125 14 51 41 265 59 465 27 280 21 802 -10 1025 -42 306
-47 335 -80 495 -32 155 -37 176 -53 235 -8 30 -18 66 -22 80 -9 35 -64 217
-79 265 -28 82 -66 191 -75 213 -21 47 -30 70 -65 157 -169 418 -453 894 -759
1270 -250 307 -619 667 -870 850 -23 16 -43 32 -46 36 -11 14 -224 161 -350
240 -213 135 -260 162 -485 272 -197 97 -196 97 -380 170 -148 60 -316 119
-400 142 -27 8 -75 21 -105 30 -30 9 -91 25 -135 36 -44 11 -96 24 -115 29
-19 5 -48 11 -65 14 -16 3 -61 12 -100 21 -67 15 -161 30 -385 60 -242 33
-686 44 -1000 24z m685 -84 c127 -8 280 -22 340 -30 61 -9 142 -20 180 -25 75
-10 151 -26 201 -41 17 -5 38 -9 47 -9 24 0 275 -63 377 -95 47 -14 99 -30
115 -35 35 -9 91 -28 120 -40 11 -4 54 -20 95 -35 238 -87 651 -282 802 -378
31 -21 60 -37 63 -37 9 0 417 -278 485 -332 67 -52 112 -89 234 -193 71 -60
410 -394 477 -470 155 -175 323 -397 462 -610 164 -252 280 -470 412 -770 14
-33 30 -69 35 -80 22 -48 76 -195 130 -355 45 -133 73 -232 111 -395 60 -261
69 -310 110 -635 20 -153 23 -223 23 -555 1 -372 -10 -559 -43 -740 -6 -27
-17 -95 -26 -150 -26 -157 -84 -409 -144 -620 -40 -139 -176 -491 -253 -655
-77 -163 -177 -355 -209 -402 -11 -14 -19 -29 -19 -32 0 -16 -287 -450 -324
-490 -6 -6 -30 -37 -54 -69 -181 -243 -524 -597 -776 -802 -27 -22 -63 -52
-80 -66 -28 -23 -245 -184 -306 -227 -100 -70 -539 -332 -556 -332 -2 0 -61
-27 -131 -61 -138 -66 -404 -179 -422 -179 -6 0 -19 -4 -29 -10 -34 -19 -337
-114 -482 -150 -47 -12 -101 -26 -120 -31 -46 -11 -275 -55 -365 -69 -72 -12
-151 -21 -335 -41 -142 -16 -753 -16 -905 0 -215 22 -394 45 -460 60 -22 5
-78 17 -125 26 -190 36 -612 155 -725 204 -11 5 -42 17 -70 26 -27 9 -68 25
-90 35 -22 10 -76 33 -120 51 -44 18 -159 73 -255 120 -396 198 -785 460
-1125 762 -172 152 -435 428 -561 587 -32 41 -62 77 -65 80 -34 29 -293 409
-381 560 -85 144 -95 164 -171 315 -156 313 -280 637 -369 965 -17 66 -37 155
-67 300 -26 130 -39 207 -71 430 -15 103 -35 452 -35 600 0 151 20 488 35 595
45 316 41 295 75 453 30 142 47 217 55 242 4 14 15 52 25 85 155 561 412 1101
753 1585 82 117 227 301 324 412 102 116 409 426 478 483 14 11 58 49 99 83
217 187 577 432 856 582 475 257 1028 449 1535 535 52 8 115 20 140 25 25 5
81 12 125 15 44 4 103 10 130 15 28 5 118 12 200 15 83 4 152 9 154 11 9 9
246 3 466 -11z"/>
<path d="M6205 10941 c-3 -6 -3 -54 1 -108 l6 -98 -22 20 c-12 10 -51 57 -87
102 -59 75 -69 83 -100 83 -18 0 -36 -6 -38 -12 -2 -7 -1 -89 3 -183 l7 -170
40 0 40 0 -3 108 c-2 59 -2 107 0 107 3 0 29 -30 59 -67 30 -38 59 -74 66 -80
6 -7 21 -24 32 -39 15 -19 27 -25 52 -22 l31 3 -2 140 c-2 118 -4 173 -9 218
-1 10 -69 9 -76 -2z"/>
<path d="M6366 10943 c-3 -4 -6 -19 -6 -35 0 -26 3 -28 38 -28 65 0 66 -2 59
-159 l-7 -141 24 -6 c58 -14 60 -9 68 126 11 179 5 164 63 170 46 5 50 7 53
33 2 16 -2 29 -10 31 -23 8 -275 15 -282 9z"/>
<path d="M5720 10915 c-58 -7 -105 -13 -105 -14 0 -1 3 -34 6 -73 16 -171 30
-273 38 -281 5 -5 51 -4 110 2 56 6 108 11 116 11 10 0 15 11 15 35 0 39 -9
41 -102 26 -59 -10 -70 -3 -66 40 3 34 3 34 71 43 71 10 72 11 57 50 -9 24
-11 25 -74 19 -64 -6 -65 -5 -72 21 -11 46 -1 54 81 61 l76 7 -3 32 c-4 38 -7
38 -148 21z"/>
<path d="M6886 10878 c-3 -18 -13 -87 -21 -153 -9 -66 -17 -132 -20 -147 -5
-29 8 -38 54 -38 27 0 29 3 40 73 6 39 17 118 24 175 12 96 12 104 -4 113 -10
5 -29 9 -43 9 -21 0 -26 -6 -30 -32z"/>
<path d="M5452 10879 c-28 -8 -38 -20 -67 -84 -19 -41 -38 -75 -42 -75 -5 0
-35 23 -67 52 -50 45 -64 52 -95 49 -20 -1 -40 -6 -45 -11 -8 -8 50 -327 64
-350 9 -15 80 -2 80 14 0 7 -9 52 -20 102 -30 136 -30 136 48 68 28 -25 56
-43 61 -40 5 3 21 35 36 71 18 41 32 62 38 56 5 -5 17 -53 28 -106 10 -53 21
-101 24 -106 6 -9 65 -1 77 10 8 7 -54 331 -67 351 -7 12 -9 11 -53 -1z"/>
<path d="M7077 10883 c-11 -19 -68 -335 -63 -348 3 -9 18 -15 39 -15 l33 0 17
87 c10 48 22 92 27 97 5 5 32 -37 67 -108 58 -116 78 -138 115 -123 13 4 84
345 75 354 -3 2 -20 6 -38 9 l-34 6 -18 -79 c-9 -43 -17 -86 -17 -95 0 -44
-22 -18 -71 87 -45 95 -59 116 -83 125 -34 12 -43 12 -49 3z"/>
<path d="M7486 10792 c-2 -4 -16 -50 -30 -102 -13 -52 -34 -126 -45 -165 -19
-65 -19 -71 -4 -82 9 -7 29 -13 43 -13 24 0 28 6 43 60 19 67 23 69 102 48 39
-11 48 -10 55 2 21 34 11 48 -47 67 -48 15 -58 22 -61 43 -2 14 3 33 11 44 13
17 15 17 82 -3 38 -12 72 -18 76 -14 4 5 9 19 11 33 3 23 -3 26 -87 51 -125
36 -143 40 -149 31z"/>
<path d="M4925 10753 c-117 -36 -135 -44 -135 -59 0 -22 90 -318 100 -328 7
-7 206 45 232 60 4 3 2 18 -4 34 -11 33 -17 33 -102 3 -21 -7 -45 -13 -52 -13
-13 0 -35 58 -28 71 2 3 31 14 64 23 61 17 61 17 54 49 -3 18 -8 33 -9 35 -2
2 -24 -4 -49 -12 -72 -25 -92 -22 -100 15 -7 36 -1 49 21 49 25 0 123 33 123
41 0 17 -20 59 -27 58 -5 0 -44 -12 -88 -26z"/>
<path d="M7824 10651 c-40 -24 -67 -63 -88 -124 -21 -62 -20 -92 4 -142 26
-54 107 -102 174 -104 44 -1 108 34 135 74 34 51 53 140 40 190 -14 52 -33 73
-94 101 -61 29 -128 31 -171 5z m137 -66 c56 -29 60 -90 13 -172 -34 -59 -85
-69 -139 -27 -43 32 -9 175 49 202 30 15 43 14 77 -3z"/>
<path d="M4550 10630 c-37 -12 -66 -31 -87 -56 -30 -33 -33 -44 -33 -98 1
-101 57 -195 131 -217 53 -16 143 11 200 59 47 40 47 51 5 146 l-25 56 -58
-21 c-74 -27 -79 -32 -65 -64 10 -22 17 -26 40 -20 23 5 30 2 39 -18 13 -27 7
-39 -24 -56 -59 -31 -119 6 -148 93 -15 44 -17 60 -7 80 18 40 69 66 130 66
28 0 52 2 52 4 0 1 -5 17 -11 35 -10 27 -15 31 -47 31 -21 -1 -62 -9 -92 -20z"/>
<path d="M8223 10543 c-7 -3 -13 -8 -13 -12 0 -5 -32 -75 -71 -156 -77 -161
-77 -168 -11 -181 25 -5 32 -3 32 9 0 24 40 87 55 87 26 0 45 -43 45 -102 0
-63 13 -79 74 -94 l29 -7 -7 59 c-3 32 -7 68 -9 78 -1 15 6 21 30 27 57 12 93
59 93 122 0 41 -43 85 -115 117 -27 12 -66 30 -85 40 -19 9 -41 15 -47 13z
m104 -115 c47 -27 52 -34 45 -62 -8 -32 -22 -46 -49 -46 -33 0 -83 27 -83 45
0 19 32 85 41 85 4 0 25 -10 46 -22z"/>
<path d="M4167 10459 c-36 -19 -38 -22 -33 -57 4 -20 11 -91 16 -157 6 -66 13
-136 16 -156 l6 -37 32 13 c28 12 31 18 31 57 0 41 2 44 50 70 62 34 76 34
108 2 25 -25 26 -25 59 -8 18 9 35 18 38 21 6 6 -263 273 -275 273 -5 -1 -27
-10 -48 -21z m98 -139 c38 -39 38 -40 19 -54 -24 -18 -53 -26 -58 -17 -10 16
-18 111 -9 111 5 0 26 -18 48 -40z"/>
<path d="M8510 10217 c-47 -78 -86 -149 -88 -158 -3 -13 37 -42 61 -44 4 0 31
40 60 89 29 49 57 91 63 93 7 2 13 -20 17 -63 2 -36 9 -70 14 -75 6 -6 34 1
72 16 35 14 67 25 72 23 5 -2 -16 -43 -46 -93 -30 -49 -55 -95 -55 -101 0 -16
49 -47 64 -41 7 3 52 71 100 151 95 157 96 161 37 186 -25 10 -38 8 -101 -19
-40 -17 -75 -29 -80 -26 -4 2 -11 41 -14 85 -7 72 -10 81 -36 100 -15 11 -34
20 -42 20 -7 0 -51 -64 -98 -143z"/>
<path d="M3908 10322 c-16 -9 -28 -21 -28 -26 0 -4 20 -42 45 -83 40 -66 52
-93 41 -93 -1 0 -51 20 -110 45 -60 25 -115 45 -124 45 -10 0 -28 -9 -40 -18
l-24 -19 68 -114 c37 -63 80 -133 96 -156 l28 -42 30 17 c16 9 30 22 30 27 0
6 -23 46 -49 90 -27 44 -47 83 -45 86 2 4 28 -2 56 -13 49 -18 69 -26 156 -64
32 -14 41 -12 80 14 11 7 2 30 -42 103 -31 52 -60 99 -66 106 -5 7 -10 14 -10
17 0 9 -55 96 -60 96 -3 0 -17 -8 -32 -18z"/>
<path d="M5979 10246 c-2 -3 -61 -10 -129 -16 -192 -16 -400 -52 -590 -102
-41 -11 -91 -24 -110 -29 -38 -9 -116 -32 -140 -41 -8 -4 -24 -9 -35 -11 -39
-10 -195 -67 -239 -87 -25 -11 -49 -20 -54 -20 -4 0 -26 -8 -48 -19 -21 -10
-61 -29 -89 -41 -71 -31 -201 -95 -265 -131 -30 -17 -80 -45 -110 -62 -162
-89 -439 -284 -600 -420 -163 -139 -376 -350 -495 -492 -27 -33 -52 -62 -55
-65 -35 -32 -237 -315 -311 -435 -52 -83 -72 -118 -128 -218 -34 -60 -117
-228 -141 -282 -11 -27 -25 -59 -30 -70 -37 -84 -110 -271 -125 -320 -9 -33
-21 -71 -25 -85 -5 -14 -16 -52 -25 -85 -10 -33 -23 -80 -30 -105 -7 -25 -16
-58 -20 -75 -3 -16 -13 -59 -21 -95 -31 -133 -57 -302 -76 -500 -22 -218 -12
-908 13 -934 5 -6 9 -28 9 -51 0 -22 15 -117 34 -210 53 -264 70 -325 158
-590 28 -82 51 -154 52 -160 2 -5 19 -44 38 -85 20 -41 45 -97 57 -125 23 -52
91 -187 150 -296 84 -157 254 -410 384 -574 272 -341 666 -696 1017 -918 58
-37 110 -70 115 -74 6 -5 21 -14 35 -20 14 -7 50 -27 80 -44 86 -50 240 -129
290 -149 25 -10 72 -30 105 -44 33 -15 71 -32 85 -38 14 -6 33 -14 42 -19 10
-5 23 -9 29 -9 6 0 25 -6 42 -14 43 -19 232 -83 282 -95 22 -5 72 -18 110 -29
39 -10 106 -27 150 -36 44 -10 98 -21 120 -26 194 -43 512 -72 795 -74 355 -1
709 43 1045 130 55 14 118 30 140 35 45 11 72 20 230 77 211 76 204 73 445
190 560 272 1051 667 1444 1162 37 47 74 93 82 103 39 48 208 307 267 410 80
138 191 361 236 472 17 44 36 89 40 100 26 62 43 109 67 185 15 47 31 94 35
105 5 11 13 38 18 60 6 22 14 56 20 75 25 90 51 203 66 285 9 50 20 106 25
125 13 55 38 279 51 458 11 150 8 361 -6 572 -12 176 -62 497 -95 615 -5 17
-11 46 -15 65 -17 92 -128 440 -171 537 -8 17 -14 34 -14 37 0 3 -12 31 -26
63 -14 32 -32 74 -41 93 -31 72 -134 271 -188 365 -71 123 -242 385 -265 405
-3 3 -28 34 -55 70 -247 328 -603 662 -975 913 -221 149 -525 314 -720 392
-52 20 -108 43 -125 50 -16 7 -73 27 -125 45 -52 17 -104 35 -115 40 -11 5
-40 13 -65 20 -25 6 -58 15 -75 20 -30 8 -163 42 -240 60 -80 20 -358 61 -535
79 -99 11 -652 16 -661 7z m821 -46 c190 -26 322 -50 465 -84 147 -35 354 -96
412 -122 17 -8 36 -14 42 -14 6 0 19 -4 29 -9 9 -5 37 -17 62 -26 25 -10 63
-26 85 -35 22 -10 65 -28 95 -41 109 -45 327 -161 495 -262 100 -61 334 -224
407 -285 282 -236 516 -471 678 -682 19 -25 40 -51 47 -58 7 -8 18 -23 25 -35
6 -12 26 -40 44 -62 116 -144 361 -571 437 -762 9 -23 25 -61 35 -85 11 -24
27 -63 37 -88 9 -25 21 -54 26 -65 4 -11 22 -65 39 -120 17 -55 35 -109 40
-120 8 -18 17 -51 40 -145 98 -391 130 -649 130 -1055 0 -369 -23 -597 -96
-930 -32 -148 -44 -178 -56 -145 -13 35 -19 19 -8 -20 6 -19 8 -44 5 -55 -19
-71 -28 -102 -36 -120 -4 -11 -12 -36 -18 -55 -12 -44 -77 -225 -95 -265 -8
-16 -24 -52 -36 -80 -38 -89 -69 -152 -168 -350 -9 -16 -18 -32 -21 -35 -3 -3
-15 -21 -25 -40 -75 -138 -293 -457 -373 -545 -10 -12 -38 -45 -63 -75 -169
-208 -549 -561 -735 -684 -22 -14 -54 -36 -71 -48 -228 -165 -671 -401 -874
-468 -14 -4 -77 -27 -140 -50 -117 -43 -133 -48 -230 -74 -463 -123 -680 -151
-1155 -151 -351 1 -458 9 -755 61 -410 72 -892 244 -1259 451 -51 29 -95 53
-97 53 -9 0 -185 116 -309 203 -207 147 -495 393 -495 423 0 8 -6 14 -14 14
-29 0 -323 332 -444 500 -50 69 -182 267 -182 272 0 3 -19 34 -42 70 -24 36
-72 123 -108 194 -36 71 -68 131 -72 132 -5 2 -8 8 -8 14 0 6 -13 38 -28 72
-45 97 -57 125 -97 231 -20 55 -41 109 -45 120 -9 21 -47 143 -73 235 -26 91
-63 249 -81 345 -9 50 -21 109 -26 133 -13 55 -13 132 0 132 6 0 10 5 10 11 0
6 -7 9 -15 5 -10 -4 -15 1 -16 17 0 12 -2 36 -4 52 -25 192 -28 803 -4 831 6
7 8 17 5 22 -10 16 24 259 56 412 11 52 24 113 28 135 11 58 58 228 85 310 54
159 54 159 95 265 44 116 68 171 117 270 24 46 43 88 43 92 0 4 23 46 50 94
28 48 50 89 50 91 0 5 123 203 171 274 78 116 220 299 329 424 47 53 302 309
365 365 220 197 514 403 770 540 139 75 356 180 371 180 3 0 29 11 58 24 51
23 336 122 421 146 111 31 154 42 200 52 28 5 68 14 90 20 114 27 391 67 540
78 193 15 680 3 845 -20z"/>
<path d="M7354 9320 c-33 -13 -93 -90 -100 -127 -17 -92 24 -169 113 -212 l50
-24 -1 -106 -1 -106 -30 -3 c-100 -10 -223 -71 -299 -148 l-60 -61 -63 38
c-35 22 -68 39 -73 39 -6 0 -10 3 -10 8 0 4 -10 12 -22 17 -20 9 -22 18 -23
77 0 57 -4 71 -25 93 -53 57 -117 69 -179 34 -37 -21 -97 -104 -82 -113 5 -3
6 -16 4 -29 -3 -16 7 -35 39 -69 58 -62 107 -71 174 -34 26 14 51 26 57 26 6
0 51 -24 99 -52 62 -37 88 -58 84 -68 -2 -8 -16 -49 -31 -90 -24 -68 -26 -86
-23 -185 4 -106 6 -113 46 -190 l42 -79 -32 -33 c-18 -18 -34 -33 -38 -33 -3
0 -48 -40 -100 -90 -52 -49 -102 -90 -111 -90 -9 0 -19 -10 -22 -21 -4 -16
-11 -20 -26 -16 -15 4 -21 0 -21 -11 -1 -22 -17 -42 -63 -76 -35 -27 -40 -28
-90 -18 -46 9 -57 7 -97 -11 -54 -27 -82 -70 -82 -131 0 -65 30 -107 97 -141
12 -6 23 -25 26 -45 l6 -35 2 32 c1 26 6 34 27 39 32 8 41 -1 47 -46 4 -29 4
-28 4 10 0 39 5 50 43 89 42 44 42 44 38 108 l-4 63 46 43 c25 24 124 113 221
199 l177 157 53 -37 c30 -20 68 -43 84 -51 17 -7 39 -18 50 -24 11 -6 70 -13
132 -15 113 -5 197 11 248 45 11 7 25 13 31 13 21 0 206 -208 197 -222 -14
-22 -33 -82 -33 -106 0 -58 26 -108 88 -168 56 -55 62 -65 64 -105 l1 -44 6
50 6 50 57 2 c97 3 172 58 204 149 18 53 17 74 -6 137 -22 57 -55 94 -109 122
-44 22 -166 22 -191 0 -9 -8 -21 -15 -27 -15 -5 0 -38 33 -73 73 -35 39 -74
81 -87 92 -26 23 -29 40 -9 52 7 4 34 37 58 73 42 60 69 124 83 193 l5 27 234
0 233 0 11 -25 c7 -14 12 -32 12 -39 0 -15 52 -63 89 -82 14 -8 51 -14 81 -14
46 1 60 5 86 29 55 50 64 70 64 145 0 81 -23 121 -87 151 -88 42 -210 -1 -233
-83 -5 -20 -13 -42 -18 -49 -5 -8 -72 -12 -232 -14 -186 -2 -225 1 -227 12
-16 140 -44 233 -93 304 -17 24 -29 52 -29 62 1 10 34 49 74 86 l73 68 34 -14
c46 -19 112 -8 144 25 53 52 37 150 -29 181 -102 49 -191 -20 -172 -132 6 -37
4 -40 -70 -115 -70 -70 -98 -88 -107 -68 -5 12 -71 56 -120 80 -26 13 -78 29
-115 36 l-68 12 0 105 0 104 42 20 c112 54 152 155 102 260 -30 63 -86 95
-165 94 -32 0 -68 -4 -80 -9z m146 -39 c107 -56 107 -210 0 -263 -46 -23 -83
-22 -130 2 -54 28 -80 68 -80 125 0 55 19 96 57 123 50 36 103 40 153 13z
m616 -385 c37 -37 42 -62 19 -106 -45 -87 -175 -57 -175 39 0 93 91 132 156
67z m-1371 -70 c60 -26 92 -105 64 -159 -51 -97 -182 -91 -225 9 -29 70 30
155 114 163 7 0 28 -5 47 -13z m809 -172 c115 -39 200 -114 258 -225 32 -62
33 -68 33 -179 0 -107 -2 -119 -30 -175 -36 -73 -127 -167 -178 -186 -20 -7
-37 -16 -37 -20 0 -11 -60 -21 -162 -26 -94 -4 -99 -3 -173 31 -54 25 -91 51
-130 91 -61 63 -85 111 -110 210 -16 61 -16 78 -5 135 24 124 90 225 192 296
87 61 241 82 342 48z m1089 -317 c55 -33 77 -72 77 -135 0 -29 -4 -61 -10 -71
-12 -23 -79 -74 -99 -76 -9 -1 -24 -6 -34 -10 -39 -17 -121 30 -150 85 -22 43
-17 122 11 160 52 70 135 89 205 47z m-516 -707 c57 -25 81 -67 81 -137 -1
-65 -24 -99 -87 -127 -56 -26 -102 -15 -152 35 -35 35 -39 44 -39 92 0 61 29
117 60 117 11 0 20 5 20 10 0 11 35 28 60 29 8 0 34 -8 57 -19z m-1573 -151
c58 -46 15 -134 -63 -127 -91 8 -82 148 10 148 14 0 38 -9 53 -21z"/>
<path d="M7385 8075 c0 -24 3 -41 8 -38 4 2 7 19 7 38 0 19 -3 36 -7 38 -5 3
-8 -14 -8 -38z"/>
<path d="M7330 8040 c0 -5 5 -10 11 -10 5 0 7 5 4 10 -3 6 -8 10 -11 10 -2 0
-4 -4 -4 -10z"/>
<path d="M6282 8710 c0 -14 2 -19 5 -12 2 6 2 18 0 25 -3 6 -5 1 -5 -13z"/>
<path d="M8621 8514 c0 -11 3 -14 6 -6 3 7 2 16 -1 19 -3 4 -6 -2 -5 -13z"/>
<path d="M6072 8495 c0 -16 2 -22 5 -12 2 9 2 23 0 30 -3 6 -5 -1 -5 -18z"/>
<path d="M9062 8495 c0 -16 2 -22 5 -12 2 9 2 23 0 30 -3 6 -5 -1 -5 -18z"/>
<path d="M4221 8314 c0 -11 3 -14 6 -6 3 7 2 16 -1 19 -3 4 -6 -2 -5 -13z"/>
<path d="M4222 8270 c0 -14 2 -19 5 -12 2 6 2 18 0 25 -3 6 -5 1 -5 -13z"/>
<path d="M4428 8083 c5 -59 10 -63 11 -10 1 26 -3 47 -7 47 -4 0 -6 -17 -4
-37z"/>
<path d="M4814 8106 c-3 -8 -4 -27 -2 -43 3 -23 5 -20 9 15 5 43 2 53 -7 28z"/>
<path d="M4868 8093 c5 -21 7 -23 10 -9 2 10 0 22 -6 28 -6 6 -7 0 -4 -19z"/>
<path d="M5923 8075 c0 -27 2 -38 4 -22 2 15 2 37 0 50 -2 12 -4 0 -4 -28z"/>
<path d="M6755 8110 c3 -5 8 -10 11 -10 2 0 4 5 4 10 0 6 -5 10 -11 10 -5 0
-7 -4 -4 -10z"/>
<path d="M8208 8080 c2 -22 6 -40 8 -40 2 0 4 18 4 40 0 22 -3 40 -8 40 -4 0
-6 -18 -4 -40z"/>
<path d="M3402 8075 c0 -16 2 -22 5 -12 2 9 2 23 0 30 -3 6 -5 -1 -5 -18z"/>
<path d="M6692 8075 c0 -16 2 -22 5 -12 2 9 2 23 0 30 -3 6 -5 -1 -5 -18z"/>
<path d="M5850 8074 c0 -8 5 -12 10 -9 6 4 8 11 5 16 -9 14 -15 11 -15 -7z"/>
<path d="M5690 7907 c27 -15 36 -14 25 2 -3 6 -16 11 -28 11 -21 0 -21 -1 3
-13z"/>
<path d="M8003 7865 c0 -27 2 -38 4 -22 2 15 2 37 0 50 -2 12 -4 0 -4 -28z"/>
<path d="M9052 7880 c0 -19 2 -27 5 -17 2 9 2 25 0 35 -3 9 -5 1 -5 -18z"/>
<path d="M3401 7874 c0 -11 3 -14 6 -6 3 7 2 16 -1 19 -3 4 -6 -2 -5 -13z"/>
<path d="M5642 7860 c0 -19 2 -27 5 -17 2 9 2 25 0 35 -3 9 -5 1 -5 -18z"/>
<path d="M6692 7870 c0 -14 2 -19 5 -12 2 6 2 18 0 25 -3 6 -5 1 -5 -13z"/>
<path d="M4381 7864 c0 -11 3 -14 6 -6 3 7 2 16 -1 19 -3 4 -6 -2 -5 -13z"/>
<path d="M5431 7864 c0 -11 3 -14 6 -6 3 7 2 16 -1 19 -3 4 -6 -2 -5 -13z"/>
<path d="M3578 7703 c7 -3 16 -2 19 1 4 3 -2 6 -13 5 -11 0 -14 -3 -6 -6z"/>
<path d="M4208 7697 c6 -7 12 -30 15 -52 3 -36 4 -35 5 13 2 42 -1 52 -14 52
-12 0 -14 -3 -6 -13z"/>
<path d="M4413 7703 c9 -2 23 -2 30 0 6 3 -1 5 -18 5 -16 0 -22 -2 -12 -5z"/>
<path d="M6281 7688 c1 -17 2 -19 6 -5 6 22 49 23 57 1 3 -9 6 -26 6 -39 0
-28 -34 -43 -55 -25 -10 9 -15 9 -15 1 0 -17 48 -25 65 -11 18 15 20 71 3 88
-7 7 -25 12 -40 12 -23 0 -28 -4 -27 -22z"/>
<path d="M6937 7702 c6 -4 13 -30 16 -57 l3 -50 2 58 c2 48 -1 57 -15 57 -12
0 -14 -3 -6 -8z"/>
<path d="M7565 7700 c4 -6 11 -8 16 -5 14 9 11 15 -7 15 -8 0 -12 -5 -9 -10z"/>
<path d="M3552 7655 c0 -16 2 -22 5 -12 2 9 2 23 0 30 -3 6 -5 -1 -5 -18z"/>
<path d="M4382 7655 c0 -16 2 -22 5 -12 2 9 2 23 0 30 -3 6 -5 -1 -5 -18z"/>
<path d="M5092 7655 c0 -16 2 -22 5 -12 2 9 2 23 0 30 -3 6 -5 -1 -5 -18z"/>
<path d="M5021 7624 c0 -11 3 -14 6 -6 3 7 2 16 -1 19 -3 4 -6 -2 -5 -13z"/>
<path d="M4407 7609 c7 -7 15 -10 18 -7 3 3 -2 9 -12 12 -14 6 -15 5 -6 -5z"/>
<path d="M3578 7603 c7 -3 16 -2 19 1 4 3 -2 6 -13 5 -11 0 -14 -3 -6 -6z"/>
<path d="M5048 7603 c6 -2 18 -2 25 0 6 3 1 5 -13 5 -14 0 -19 -2 -12 -5z"/>
<path d="M3356 7492 c-3 -5 5 -7 18 -5 17 4 26 0 30 -14 4 -16 5 -15 3 2 -2
21 -40 34 -51 17z"/>
<path d="M3795 7493 c11 -3 26 -13 33 -22 12 -15 13 -14 8 2 -3 10 -6 21 -6
23 0 2 -12 3 -27 3 -21 -1 -23 -3 -8 -6z"/>
<path d="M4215 7490 c3 -5 8 -10 11 -10 2 0 4 5 4 10 0 6 -5 10 -11 10 -5 0
-7 -4 -4 -10z"/>
<path d="M4661 7484 c0 -11 3 -14 6 -6 3 7 2 16 -1 19 -3 4 -6 -2 -5 -13z"/>
<path d="M4842 7488 c9 -7 19 -31 21 -53 3 -32 4 -30 3 10 -1 42 -4 50 -21 53
-18 4 -19 3 -3 -10z"/>
<path d="M7778 7487 c6 -7 12 -33 15 -57 3 -42 4 -41 5 13 2 47 -1 57 -14 57
-12 0 -14 -3 -6 -13z"/>
<path d="M8597 7493 c-4 -3 -7 -11 -7 -17 0 -6 4 -5 9 2 17 28 46 9 51 -33 5
-35 7 -37 14 -17 14 41 -40 93 -67 65z"/>
<path d="M3763 7450 c0 -25 2 -35 4 -22 2 12 2 32 0 45 -2 12 -4 2 -4 -23z"/>
<path d="M3973 7450 c0 -25 2 -35 4 -22 2 12 2 32 0 45 -2 12 -4 2 -4 -23z"/>
<path d="M4043 7445 c0 -22 2 -30 4 -17 2 12 2 30 0 40 -3 9 -5 -1 -4 -23z"/>
<path d="M4590 7446 c0 -14 3 -27 8 -29 4 -3 7 8 7 24 0 16 -3 29 -7 29 -5 0
-8 -11 -8 -24z"/>
<path d="M6692 7445 c0 -16 2 -22 5 -12 2 9 2 23 0 30 -3 6 -5 -1 -5 -18z"/>
<path d="M6772 7450 c0 -14 2 -19 5 -12 2 6 2 18 0 25 -3 6 -5 1 -5 -13z"/>
<path d="M5431 7444 c0 -11 3 -14 6 -6 3 7 2 16 -1 19 -3 4 -6 -2 -5 -13z"/>
<path d="M3401 7414 c0 -11 3 -14 6 -6 3 7 2 16 -1 19 -3 4 -6 -2 -5 -13z"/>
<path d="M8594 7410 c1 -9 12 -16 26 -17 21 -1 21 -1 3 3 -12 3 -24 11 -26 17
-2 7 -3 5 -3 -3z"/>
<path d="M3353 7410 c2 -8 12 -16 23 -17 13 -2 15 -1 4 4 -8 3 -19 11 -23 17
-6 7 -7 6 -4 -4z"/>
<path d="M3800 7404 c-23 -13 -24 -14 -4 -14 12 0 27 7 34 15 15 18 4 18 -30
-1z"/>
<path d="M4660 7412 c0 -7 -12 -13 -27 -13 -26 -2 -26 -2 -4 -6 24 -5 50 11
38 24 -4 3 -7 1 -7 -5z"/>
<path d="M3998 7393 c6 -2 18 -2 25 0 6 3 1 5 -13 5 -14 0 -19 -2 -12 -5z"/>
<path d="M6723 7393 c9 -2 23 -2 30 0 6 3 -1 5 -18 5 -16 0 -22 -2 -12 -5z"/>
<path d="M4870 7280 c0 -8 5 -22 10 -30 9 -13 10 -13 10 0 0 8 -5 22 -10 30
-9 13 -10 13 -10 0z"/>
<path d="M7574 7243 l1 -48 -70 -7 c-38 -4 -186 -9 -327 -10 -142 -2 -258 -5
-258 -8 -1 -18 -73 -405 -85 -457 -4 -16 -1 -23 10 -23 14 0 121 50 440 205
126 62 464 225 555 269 l45 21 -145 5 -145 5 -3 48 c-4 61 -18 61 -18 0z"/>
<path d="M8208 7243 c7 -65 12 -67 12 -5 0 29 -4 52 -9 52 -5 0 -6 -21 -3 -47z"/>
<path d="M3763 7235 c0 -27 2 -38 4 -22 2 15 2 37 0 50 -2 12 -4 0 -4 -28z"/>
<path d="M4806 7271 c-4 -7 -5 -15 -2 -18 9 -9 19 4 14 18 -4 11 -6 11 -12 0z"/>
<path d="M5644 7266 c-3 -8 -4 -27 -2 -43 3 -23 5 -20 9 15 5 43 2 53 -7 28z"/>
<path d="M9258 7243 c5 -59 10 -63 11 -10 1 26 -3 47 -7 47 -4 0 -6 -17 -4
-37z"/>
<path d="M9702 7235 c0 -16 2 -22 5 -12 2 9 2 23 0 30 -3 6 -5 -1 -5 -18z"/>
<path d="M6902 7230 c0 -14 2 -19 5 -12 2 6 2 18 0 25 -3 6 -5 1 -5 -13z"/>
<path d="M4813 7211 c1 -14 9 -26 17 -28 10 -3 11 -2 4 4 -7 4 -14 17 -17 28
-5 16 -5 15 -4 -4z"/>
<path d="M5690 7190 c-23 -7 -23 -8 -3 -9 12 -1 25 4 28 9 3 6 5 10 3 9 -2 -1
-14 -5 -28 -9z"/>
<path d="M3624 7151 c-13 -8 -31 -67 -39 -121 -7 -48 -30 -162 -45 -220 -5
-19 -17 -69 -25 -110 -9 -41 -20 -91 -25 -110 -5 -19 -16 -71 -26 -115 -9 -44
-19 -87 -22 -95 -3 -8 -11 -42 -18 -75 -7 -33 -23 -112 -37 -175 -14 -63 -37
-171 -51 -240 -15 -69 -33 -152 -41 -185 -8 -33 -19 -80 -25 -105 -15 -73 -37
-170 -54 -245 -9 -38 -24 -104 -32 -145 -8 -41 -19 -88 -24 -105 -5 -16 -12
-52 -16 -80 -3 -27 -10 -54 -14 -60 -4 -5 -10 -26 -13 -45 -3 -19 -13 -66 -22
-105 -9 -38 -23 -104 -31 -145 -9 -41 -20 -93 -24 -115 -5 -22 -16 -76 -25
-120 -9 -44 -20 -99 -25 -122 -6 -24 -14 -63 -18 -88 l-9 -45 441 2 441 3 6
45 c17 120 30 202 44 275 8 44 20 107 26 140 5 33 14 74 19 90 5 17 17 68 26
115 10 47 21 90 26 96 5 7 11 29 14 50 2 22 9 53 14 69 6 17 24 72 41 124 35
110 46 134 61 129 15 -5 68 -110 62 -120 -3 -5 4 -20 15 -34 12 -15 21 -31 21
-37 0 -5 11 -33 25 -61 13 -28 33 -73 43 -101 11 -27 34 -81 52 -120 18 -38
35 -92 40 -119 4 -30 15 -55 27 -65 11 -9 28 -36 37 -61 10 -25 33 -76 51
-115 18 -38 50 -105 70 -149 l37 -78 43 48 c24 27 64 72 89 99 25 28 46 53 46
58 0 4 7 7 15 7 8 0 15 6 15 14 0 8 16 28 35 45 19 17 35 34 35 38 0 4 17 26
38 48 20 22 79 87 131 145 52 58 123 137 158 175 35 39 72 81 84 95 68 82 123
140 134 140 6 0 21 17 33 38 31 53 89 118 98 109 9 -9 -13 -127 -27 -143 -5
-6 -12 -40 -15 -75 -8 -75 -17 -97 -47 -109 l-22 -9 23 0 c21 -1 22 -4 16 -43
-4 -24 -13 -46 -20 -50 -6 -5 -10 -17 -7 -28 5 -18 -3 -61 -37 -200 -49 -200
-90 -406 -90 -453 l0 -37 68 0 c83 -1 901 -8 922 -9 8 0 43 2 78 5 35 3 75 3
89 -1 24 -6 24 -7 9 -24 -16 -18 -22 -86 -8 -94 4 -3 7 16 7 41 0 43 3 48 35
64 46 22 157 24 188 2 17 -12 22 -26 24 -67 l1 -52 6 65 6 65 812 2 c695 3
814 1 826 -11 12 -13 17 -13 34 -1 10 7 53 16 94 20 148 13 252 42 388 108 40
20 78 34 82 31 5 -3 9 -16 9 -29 0 -13 3 -26 8 -28 4 -3 7 15 7 40 0 33 5 49
18 57 14 8 20 8 28 -4 9 -13 10 -13 6 2 -4 11 14 33 56 70 34 29 77 67 96 85
25 23 38 29 43 20 5 -7 8 -3 8 13 0 14 10 36 21 50 91 113 193 297 209 377 5
27 14 64 20 83 18 60 15 307 -6 381 -9 35 -21 68 -25 73 -5 6 -9 31 -9 57 0
41 -3 48 -24 53 -13 3 -34 23 -48 43 -32 48 -156 173 -171 173 -7 0 -28 11
-47 23 -19 13 -46 27 -60 30 -14 3 -34 15 -46 25 -11 10 -32 22 -47 26 -15 3
-27 13 -27 22 0 9 -6 14 -12 12 -16 -6 -397 187 -415 210 -18 23 -11 107 12
132 40 44 89 49 449 49 315 0 340 1 356 18 10 10 60 83 111 163 51 80 109 168
129 195 20 28 39 55 41 60 2 6 43 70 91 143 80 119 108 152 108 121 0 -5 5 -7
12 -3 8 5 7 10 -5 18 -12 9 -13 16 -4 31 5 11 15 23 21 28 8 5 7 9 -2 15 -7 5
-308 9 -670 9 -675 1 -783 -4 -907 -41 -27 -8 -66 -19 -86 -25 -20 -6 -69 -29
-109 -51 -40 -22 -78 -40 -84 -40 -6 0 -23 -11 -38 -25 -14 -13 -53 -45 -85
-71 -128 -103 -264 -269 -319 -391 -10 -23 -30 -47 -43 -53 -23 -11 -24 -10
-17 27 10 61 89 213 158 304 81 107 143 205 179 285 28 63 26 74 -9 54 -9 -5
-219 -109 -467 -230 -524 -258 -566 -279 -583 -294 -7 -7 -18 -41 -24 -77 -7
-35 -16 -67 -21 -70 -5 -4 -11 -26 -12 -50 -4 -64 -20 -136 -33 -152 -7 -8 -9
-16 -6 -20 7 -6 -14 -106 -61 -297 -9 -36 -20 -81 -24 -100 -5 -19 -16 -64
-26 -100 -9 -36 -21 -87 -25 -114 -5 -26 -13 -62 -18 -80 -6 -17 -15 -58 -22
-91 -7 -33 -18 -87 -25 -120 -8 -33 -16 -78 -20 -100 -4 -22 -12 -74 -20 -115
-7 -41 -11 -78 -8 -82 6 -11 157 -10 266 1 83 9 233 19 539 37 120 7 117 6
123 88 2 23 15 91 29 151 15 61 31 133 36 160 23 112 74 305 81 305 5 0 16
-15 25 -32 24 -47 61 -96 112 -149 24 -26 49 -57 56 -70 6 -13 25 -28 41 -32
17 -5 59 -24 95 -43 l65 -33 6 -63 6 -63 1 53 c2 55 12 63 53 42 25 -14 26
-75 2 -89 -10 -6 -13 -11 -8 -11 17 0 35 22 35 42 0 30 26 31 72 5 24 -13 88
-48 143 -77 55 -29 107 -58 116 -66 8 -8 22 -14 29 -14 8 0 24 -10 36 -21 19
-18 21 -25 12 -42 -8 -16 -8 -22 1 -25 34 -11 -26 -96 -78 -109 -34 -9 -117
-8 -159 2 -25 6 -37 3 -52 -10 -16 -14 -31 -16 -87 -11 -37 3 -109 6 -160 5
-50 0 -101 4 -112 10 -13 7 -22 8 -26 1 -3 -5 -79 -9 -182 -9 -135 0 -183 4
-205 15 -21 11 -33 12 -48 4 -12 -7 -221 -10 -614 -10 -557 0 -710 8 -513 24
120 10 171 17 178 24 8 9 59 224 59 249 0 10 6 28 14 39 8 11 19 55 24 99 6
44 22 127 36 185 30 125 39 165 67 290 11 52 27 127 36 165 15 69 19 89 43
210 6 33 16 64 21 70 5 5 9 28 9 51 0 24 4 45 9 48 4 3 11 27 15 53 3 26 10
61 15 78 6 16 17 68 26 115 10 47 21 94 25 105 4 11 13 47 20 80 6 33 15 76
20 95 22 95 38 185 33 193 -7 11 -851 7 -881 -4 -14 -5 -33 -21 -44 -34 -11
-14 -29 -25 -40 -25 -16 0 -18 -3 -9 -14 8 -10 6 -19 -11 -38 -13 -14 -51 -62
-86 -107 -60 -77 -92 -100 -92 -66 0 8 -4 15 -9 15 -5 0 -7 -17 -4 -39 4 -29
0 -44 -15 -62 -66 -79 -198 -242 -262 -324 -103 -131 -120 -154 -156 -195 -16
-19 -61 -75 -99 -125 -38 -49 -85 -106 -104 -126 -20 -20 -43 -50 -51 -65 -29
-53 -44 -42 -75 53 -16 48 -33 92 -37 98 -4 5 -8 21 -8 35 0 14 -6 35 -14 46
-8 12 -17 32 -19 45 -2 13 -9 37 -16 52 -6 16 -11 41 -11 55 0 15 -2 42 -6 60
-4 20 -2 38 6 47 8 10 9 15 2 15 -6 0 -14 -5 -17 -10 -10 -16 -23 -2 -35 38
-16 53 -58 214 -81 307 -10 44 -23 88 -29 97 -15 26 -12 77 5 94 38 39 18 114
-30 114 -18 0 -26 8 -35 35 l-11 35 -479 -1 c-263 -1 -482 -4 -486 -8z m1037
-95 c12 -25 5 -76 -10 -76 -10 0 -31 46 -31 69 0 37 26 42 41 7z m2894 -625
c3 -5 1 -12 -5 -16 -5 -3 -10 1 -10 9 0 18 6 21 15 7z m665 -1455 c0 -11 -19
-15 -25 -6 -3 5 1 10 9 10 9 0 16 -2 16 -4z"/>
<path d="M3168 7083 c-2 -5 -1 -30 3 -58 l6 -50 1 58 c2 52 -2 69 -10 50z"/>
<path d="M5258 7083 c7 -3 16 -2 19 1 4 3 -2 6 -13 5 -11 0 -14 -3 -6 -6z"/>
<path d="M5468 7083 c7 -3 16 -2 19 1 4 3 -2 6 -13 5 -11 0 -14 -3 -6 -6z"/>
<path d="M10308 7033 c5 -59 10 -63 11 -10 1 26 -3 47 -7 47 -4 0 -6 -17 -4
-37z"/>
<path d="M5432 7030 c0 -19 2 -27 5 -17 2 9 2 25 0 35 -3 9 -5 1 -5 -18z"/>
<path d="M7952 7030 c0 -19 2 -27 5 -17 2 9 2 25 0 35 -3 9 -5 1 -5 -18z"/>
<path d="M5512 7025 c0 -16 2 -22 5 -12 2 9 2 23 0 30 -3 6 -5 -1 -5 -18z"/>
<path d="M3356 6872 c-4 -6 3 -8 15 -5 12 4 25 0 31 -8 8 -12 9 -11 5 1 -4 17
-42 26 -51 12z"/>
<path d="M2331 6853 c0 -4 4 -17 9 -28 8 -19 9 -19 9 2 1 12 -3 25 -9 28 -5 3
-10 3 -9 -2z"/>
<path d="M3330 6822 c0 -27 29 -80 30 -55 0 6 -5 15 -11 19 -6 3 -9 19 -7 35
3 16 1 29 -4 29 -4 0 -8 -13 -8 -28z"/>
<path d="M3410 6819 c0 -14 -5 -30 -12 -37 -7 -7 -8 -12 -2 -12 6 0 17 11 24
25 10 20 11 28 2 37 -9 9 -12 6 -12 -13z"/>
<path d="M10262 6815 c0 -16 2 -22 5 -12 2 9 2 23 0 30 -3 6 -5 -1 -5 -18z"/>
<path d="M2330 6790 c0 -5 5 -10 10 -10 6 0 10 5 10 10 0 6 -4 10 -10 10 -5 0
-10 -4 -10 -10z"/>
<path d="M10320 6791 c0 -5 -10 -12 -22 -14 -22 -4 -22 -4 -2 -6 12 0 27 6 34
14 9 10 9 15 1 15 -6 0 -11 -4 -11 -9z"/>
<path d="M2992 6605 c0 -16 2 -22 5 -12 2 9 2 23 0 30 -3 6 -5 -1 -5 -18z"/>
<path d="M2502 6600 c0 -14 2 -19 5 -12 2 6 2 18 0 25 -3 6 -5 1 -5 -13z"/>
<path d="M3341 6442 c-15 -27 -14 -75 1 -90 14 -14 68 -16 68 -3 0 4 -11 6
-25 3 -19 -3 -27 1 -34 21 -11 27 -10 45 3 65 4 7 6 16 3 19 -3 2 -10 -4 -16
-15z"/>
<path d="M3398 6438 c7 -7 12 -25 12 -40 0 -15 5 -28 10 -28 13 0 13 36 0 61
-6 10 -16 19 -22 19 -9 0 -9 -3 0 -12z"/>
<path d="M4870 6441 c0 -5 5 -13 10 -16 6 -3 10 -2 10 4 0 5 -4 13 -10 16 -5
3 -10 2 -10 -4z"/>
<path d="M4883 6378 c-19 -24 -24 -38 -15 -38 5 0 14 11 20 25 13 27 10 32 -5
13z"/>
<path d="M5053 6238 c10 -8 17 -32 20 -63 3 -48 3 -47 5 13 2 58 0 62 -20 62
-20 0 -20 -1 -5 -12z"/>
<path d="M8825 6240 c3 -5 11 -10 16 -10 6 0 7 5 4 10 -3 6 -11 10 -16 10 -6
0 -7 -4 -4 -10z"/>
<path d="M2555 6230 c3 -5 8 -10 11 -10 2 0 4 5 4 10 0 6 -5 10 -11 10 -5 0
-7 -4 -4 -10z"/>
<path d="M10298 6227 c6 -7 12 -30 15 -52 3 -36 4 -35 5 13 2 42 -1 52 -14 52
-12 0 -14 -3 -6 -13z"/>
<path d="M2503 6190 c0 -25 2 -35 4 -22 2 12 2 32 0 45 -2 12 -4 2 -4 -23z"/>
<path d="M2292 6190 c0 -19 2 -27 5 -17 2 9 2 25 0 35 -3 9 -5 1 -5 -18z"/>
<path d="M2560 6152 c0 -7 -10 -13 -22 -13 -19 -1 -20 -2 -4 -6 20 -5 44 12
33 24 -4 3 -7 1 -7 -5z"/>
<path d="M10127 5985 c-4 -8 -2 -17 3 -20 6 -4 10 3 10 14 0 25 -6 27 -13 6z"/>
<path d="M3168 5795 c2 -19 6 -35 8 -35 2 0 4 16 4 35 0 19 -4 35 -8 35 -4 0
-6 -16 -4 -35z"/>
<path d="M9876 5815 c4 -8 8 -15 10 -15 2 0 4 7 4 15 0 8 -4 15 -10 15 -5 0
-7 -7 -4 -15z"/>
<path d="M10288 5823 c7 -3 16 -2 19 1 4 3 -2 6 -13 5 -11 0 -14 -3 -6 -6z"/>
<path d="M10263 5775 c0 -22 2 -30 4 -17 2 12 2 30 0 40 -3 9 -5 -1 -4 -23z"/>
<path d="M9660 5612 c0 -5 7 -13 16 -16 10 -4 14 -1 12 6 -5 15 -28 23 -28 10z"/>
<path d="M2755 5390 c3 -5 8 -10 11 -10 2 0 4 5 4 10 0 6 -5 10 -11 10 -5 0
-7 -4 -4 -10z"/>
<path d="M10313 5355 c0 -27 2 -38 4 -22 2 15 2 37 0 50 -2 12 -4 0 -4 -28z"/>
<path d="M10052 5345 c0 -16 2 -22 5 -12 2 9 2 23 0 30 -3 6 -5 -1 -5 -18z"/>
<path d="M10128 5347 c-3 -19 -2 -25 4 -19 6 6 8 18 6 28 -3 14 -5 12 -10 -9z"/>
<path d="M2761 5324 c0 -11 3 -14 6 -6 3 7 2 16 -1 19 -3 4 -6 -2 -5 -13z"/>
<path d="M4172 5140 c0 -19 2 -27 5 -17 2 9 2 25 0 35 -3 9 -5 1 -5 -18z"/>
<path d="M8360 5141 c0 -17 4 -32 8 -35 4 -2 6 11 4 30 -5 42 -12 45 -12 5z"/>
<path d="M2715 4969 c-4 -6 -5 -12 -2 -15 2 -3 7 2 10 11 7 17 1 20 -8 4z"/>
<path d="M2776 4956 c10 -41 -3 -76 -29 -77 -17 -1 -18 -2 -4 -6 10 -3 24 1
32 7 17 14 20 86 5 95 -7 4 -9 -2 -4 -19z"/>
<path d="M5433 4930 c0 -25 2 -35 4 -22 2 12 2 32 0 45 -2 12 -4 2 -4 -23z"/>
<path d="M2738 4773 c7 -3 16 -2 19 1 4 3 -2 6 -13 5 -11 0 -14 -3 -6 -6z"/>
<path d="M5260 4770 c20 -13 33 -13 25 0 -3 6 -14 10 -23 10 -15 0 -15 -2 -2
-10z"/>
<path d="M2778 4715 c-2 -19 0 -35 4 -35 4 0 8 16 8 35 0 19 -2 35 -4 35 -2 0
-6 -16 -8 -35z"/>
<path d="M4002 4558 c9 -7 19 -31 21 -53 3 -32 4 -30 3 10 -1 42 -4 50 -21 53
-18 4 -19 3 -3 -10z"/>
<path d="M10085 4560 c3 -5 11 -10 16 -10 6 0 7 5 4 10 -3 6 -11 10 -16 10 -6
0 -7 -4 -4 -10z"/>
<path d="M9262 4485 c0 -16 2 -22 5 -12 2 9 2 23 0 30 -3 6 -5 -1 -5 -18z"/>
<path d="M4182 4348 c-25 -25 -9 -98 21 -98 5 0 1 7 -7 16 -19 18 -21 55 -4
72 6 6 9 14 7 17 -3 2 -11 -1 -17 -7z"/>
<path d="M4230 4351 c0 -6 4 -11 9 -11 6 0 12 -19 14 -42 l4 -43 1 41 c1 27
-3 46 -13 54 -10 9 -15 9 -15 1z"/>
<path d="M9081 4310 c0 -20 -6 -41 -13 -48 -9 -9 -9 -12 0 -12 14 0 25 40 19
71 -3 17 -5 14 -6 -11z"/>
<path d="M9025 4150 c-3 -6 1 -7 9 -4 18 7 21 14 7 14 -6 0 -13 -4 -16 -10z"/>
<path d="M9434 4138 c-19 -23 -19 -23 1 -7 11 9 27 19 35 22 13 5 13 6 -1 6
-9 1 -24 -9 -35 -21z"/>
<path d="M5260 4140 c0 -5 5 -10 10 -10 6 0 10 5 10 10 0 6 -4 10 -10 10 -5 0
-10 -4 -10 -10z"/>
<path d="M5901 4134 c0 -11 3 -14 6 -6 3 7 2 16 -1 19 -3 4 -6 -2 -5 -13z"/>
<path d="M8372 4130 c-14 -23 -16 -70 -3 -70 4 0 6 11 3 25 -2 14 1 32 8 40 7
9 11 17 9 20 -3 2 -10 -5 -17 -15z"/>
<path d="M3790 4136 c0 -2 7 -6 15 -10 8 -3 15 -1 15 4 0 6 -7 10 -15 10 -8 0
-15 -2 -15 -4z"/>
<path d="M6560 4092 l5 -47 3 39 c2 21 0 42 -5 47 -4 4 -6 -13 -3 -39z"/>
<path d="M8440 4131 c0 -6 4 -13 10 -16 6 -3 7 1 4 9 -7 18 -14 21 -14 7z"/>
<path d="M9485 4090 c0 -27 3 -50 8 -50 7 0 9 12 9 50 0 38 -2 50 -9 50 -5 0
-8 -22 -8 -50z"/>
<path d="M9002 4094 c-1 -29 3 -46 16 -55 15 -12 16 -12 5 1 -6 8 -13 33 -16
55 l-4 40 -1 -41z"/>
<path d="M9080 4092 c0 -15 -6 -34 -12 -41 -11 -10 -10 -11 5 -6 11 5 17 18
17 41 0 19 -2 34 -5 34 -3 0 -5 -13 -5 -28z"/>
<path d="M3812 4070 c0 -14 2 -19 5 -12 2 6 2 18 0 25 -3 6 -5 1 -5 -13z"/>
<path d="M8440 4055 c0 -8 2 -15 4 -15 2 0 6 7 10 15 3 8 1 15 -4 15 -6 0 -10
-7 -10 -15z"/>
<path d="M9420 4062 c0 -5 7 -15 15 -22 8 -7 15 -9 15 -6 0 4 -7 14 -15 22 -8
9 -15 11 -15 6z"/>
<path d="M8408 4033 c7 -3 16 -2 19 1 4 3 -2 6 -13 5 -11 0 -14 -3 -6 -6z"/>
<path d="M7560 3941 c0 -5 5 -11 12 -13 6 -2 15 -26 18 -54 l7 -49 2 51 c1 46
-11 74 -31 74 -4 0 -8 -4 -8 -9z"/>
<path d="M8380 3928 c-20 -21 -28 -78 -11 -78 4 0 6 11 3 25 -5 30 24 69 45
60 8 -2 11 0 8 5 -10 15 -22 12 -45 -12z"/>
<path d="M9228 3939 c-13 -7 -18 -23 -18 -58 0 -50 9 -61 49 -61 28 0 56 80
32 94 -4 3 -6 -5 -4 -18 7 -35 -14 -68 -40 -64 -19 3 -22 9 -22 48 0 42 2 45
28 48 15 2 25 8 22 13 -8 12 -25 11 -47 -2z"/>
<path d="M4433 3885 c0 -33 2 -45 4 -27 2 18 2 45 0 60 -2 15 -4 0 -4 -33z"/>
<path d="M5490 3930 c0 -5 5 -10 11 -10 5 0 7 5 4 10 -3 6 -8 10 -11 10 -2 0
-4 -4 -4 -10z"/>
<path d="M5693 3885 c0 -33 2 -45 4 -27 2 18 2 45 0 60 -2 15 -4 0 -4 -33z"/>
<path d="M6910 3925 c-6 -8 -10 -19 -8 -24 1 -6 8 1 15 14 13 28 11 31 -7 10z"/>
<path d="M3977 3923 c-10 -9 -9 -83 1 -83 4 0 6 16 4 36 -3 24 0 39 9 45 8 5
9 9 3 9 -6 0 -14 -3 -17 -7z"/>
<path d="M4030 3915 c7 -8 10 -28 8 -44 -2 -17 -1 -28 4 -25 18 11 5 84 -14
84 -6 0 -5 -6 2 -15z"/>
<path d="M4642 3900 c0 -19 2 -27 5 -17 2 9 2 25 0 35 -3 9 -5 1 -5 -18z"/>
<path d="M8441 3914 c0 -11 3 -14 6 -6 3 7 2 16 -1 19 -3 4 -6 -2 -5 -13z"/>
<path d="M9053 3875 c0 -27 2 -38 4 -22 2 15 2 37 0 50 -2 12 -4 0 -4 -28z"/>
<path d="M5430 3881 c0 -17 4 -32 8 -35 4 -2 6 11 4 30 -5 42 -12 45 -12 5z"/>
<path d="M5512 3880 c0 -19 2 -27 5 -17 2 9 2 25 0 35 -3 9 -5 1 -5 -18z"/>
<path d="M3602 3880 c0 -14 2 -19 5 -12 2 6 2 18 0 25 -3 6 -5 1 -5 -13z"/>
<path d="M6902 3860 c0 -14 2 -19 5 -12 2 6 2 18 0 25 -3 6 -5 1 -5 -13z"/>
<path d="M8440 3846 c0 -14 -6 -17 -29 -14 -17 2 -28 1 -25 -4 9 -14 54 -9 61
7 3 9 3 19 -1 22 -3 4 -6 -2 -6 -11z"/>
<path d="M5048 3823 c7 -3 16 -2 19 1 4 3 -2 6 -13 5 -11 0 -14 -3 -6 -6z"/>
<path d="M5468 3823 c6 -2 18 -2 25 0 6 3 1 5 -13 5 -14 0 -19 -2 -12 -5z"/>
<path d="M6928 3823 c6 -2 18 -2 25 0 6 3 1 5 -13 5 -14 0 -19 -2 -12 -5z"/>
<path d="M7148 3823 c7 -3 16 -2 19 1 4 3 -2 6 -13 5 -11 0 -14 -3 -6 -6z"/>
<path d="M5668 3723 c7 -3 16 -2 19 1 4 3 -2 6 -13 5 -11 0 -14 -3 -6 -6z"/>
<path d="M6948 3688 c5 -71 10 -77 11 -15 0 31 -2 57 -7 57 -4 0 -6 -19 -4
-42z"/>
<path d="M7355 3720 c3 -5 10 -10 16 -10 5 0 9 5 9 10 0 6 -7 10 -16 10 -8 0
-12 -4 -9 -10z"/>
<path d="M8615 3720 c3 -5 8 -10 11 -10 2 0 4 5 4 10 0 6 -5 10 -11 10 -5 0
-7 -4 -4 -10z"/>
<path d="M5705 3710 c3 -5 8 -10 11 -10 2 0 4 5 4 10 0 6 -5 10 -11 10 -5 0
-7 -4 -4 -10z"/>
<path d="M5640 3676 c0 -20 7 -39 18 -47 15 -13 16 -12 3 3 -7 10 -11 31 -9
48 3 16 1 30 -4 30 -4 0 -8 -15 -8 -34z"/>
<path d="M6349 3668 c-3 -22 -1 -34 4 -29 5 5 7 21 5 37 -3 27 -4 26 -9 -8z"/>
<path d="M5888 3513 c7 -3 16 -2 19 1 4 3 -2 6 -13 5 -11 0 -14 -3 -6 -6z"/>
<path d="M6518 3507 c6 -7 12 -30 15 -52 3 -36 4 -35 5 13 2 42 -1 52 -14 52
-12 0 -14 -3 -6 -13z"/>
<path d="M6728 3513 c7 -3 16 -2 19 1 4 3 -2 6 -13 5 -11 0 -14 -3 -6 -6z"/>
<path d="M6912 3508 c-20 -20 -13 -98 9 -98 5 0 4 11 -2 24 -17 37 -4 76 25
76 28 0 43 -39 26 -70 -6 -12 -7 -20 -1 -20 15 0 23 57 11 79 -12 23 -49 28
-68 9z"/>
<path d="M7565 3510 c3 -5 10 -10 16 -10 5 0 9 5 9 10 0 6 -7 10 -16 10 -8 0
-12 -4 -9 -10z"/>
<path d="M7773 3508 c9 -8 18 -32 20 -58 3 -42 4 -41 5 13 2 53 0 57 -20 57
-20 0 -20 -1 -5 -12z"/>
<path d="M7987 3512 c6 -4 13 -30 16 -57 l3 -50 2 58 c2 48 -1 57 -15 57 -12
0 -14 -3 -6 -8z"/>
<path d="M8188 3513 c6 -2 18 -2 25 0 6 3 1 5 -13 5 -14 0 -19 -2 -12 -5z"/>
<path d="M8616 3505 c4 -8 10 -12 15 -9 14 8 10 24 -6 24 -9 0 -12 -6 -9 -15z"/>
<path d="M8825 3510 c3 -5 10 -10 16 -10 5 0 9 5 9 10 0 6 -7 10 -16 10 -8 0
-12 -4 -9 -10z"/>
<path d="M5921 3494 c0 -11 3 -14 6 -6 3 7 2 16 -1 19 -3 4 -6 -2 -5 -13z"/>
<path d="M5021 3484 c0 -11 3 -14 6 -6 3 7 2 16 -1 19 -3 4 -6 -2 -5 -13z"/>
<path d="M3612 3465 c0 -16 2 -22 5 -12 2 9 2 23 0 30 -3 6 -5 -1 -5 -18z"/>
<path d="M6692 3465 c0 -16 2 -22 5 -12 2 9 2 23 0 30 -3 6 -5 -1 -5 -18z"/>
<path d="M5852 3460 c0 -14 2 -19 5 -12 2 6 2 18 0 25 -3 6 -5 1 -5 -13z"/>
<path d="M5917 3431 c-4 -17 -3 -21 5 -13 5 5 8 16 6 23 -3 8 -7 3 -11 -10z"/>
<path d="M6947 3263 c7 -71 11 -75 12 -10 1 31 -3 57 -8 57 -5 0 -6 -21 -4
-47z"/>
<path d="M9048 3263 c5 -59 10 -63 11 -10 1 26 -3 47 -7 47 -4 0 -6 -17 -4
-37z"/>
<path d="M9263 3250 c0 -25 2 -35 4 -22 2 12 2 32 0 45 -2 12 -4 2 -4 -23z"/>
<path d="M8442 3260 c0 -14 2 -19 5 -12 2 6 2 18 0 25 -3 6 -5 1 -5 -13z"/>
<path d="M8830 3096 c0 -2 7 -9 15 -16 9 -7 15 -8 15 -2 0 5 -7 12 -15 16 -8
3 -15 4 -15 2z"/>
<path d="M8805 3079 c-4 -6 -5 -12 -2 -15 2 -3 7 2 10 11 7 17 1 20 -8 4z"/>
<path d="M4433 3045 c0 -22 2 -30 4 -17 2 12 2 30 0 40 -3 9 -5 -1 -4 -23z"/>
<path d="M8003 3040 c0 -25 2 -35 4 -22 2 12 2 32 0 45 -2 12 -4 2 -4 -23z"/>
<path d="M6972 3040 c0 -19 2 -27 5 -17 2 9 2 25 0 35 -3 9 -5 1 -5 -18z"/>
<path d="M8442 3040 c0 -19 2 -27 5 -17 2 9 2 25 0 35 -3 9 -5 1 -5 -18z"/>
<path d="M4612 2830 c0 -14 2 -19 5 -12 2 6 2 18 0 25 -3 6 -5 1 -5 -13z"/>
<path d="M7541 2814 c0 -11 3 -14 6 -6 3 7 2 16 -1 19 -3 4 -6 -2 -5 -13z"/>
<path d="M3457 10033 c-42 -29 -42 -31 -10 -138 8 -27 19 -68 25 -90 6 -22 17
-60 24 -84 8 -25 14 -52 14 -62 0 -28 18 -32 49 -9 27 18 29 23 20 53 -14 48
-13 50 42 92 43 33 54 37 70 27 10 -7 27 -17 38 -24 15 -9 24 -7 50 11 17 12
31 26 31 31 0 4 -42 36 -92 70 -51 35 -121 82 -154 106 -34 24 -63 44 -65 44
-3 0 -21 -12 -42 -27z m112 -120 c47 -33 49 -42 15 -66 -33 -24 -43 -19 -60
28 -25 74 -17 81 45 38z"/>
<path d="M9050 10007 c-25 -18 -94 -63 -153 -101 -59 -38 -107 -72 -107 -76 0
-10 46 -40 61 -40 6 0 23 9 39 20 l28 20 48 -37 c63 -47 63 -49 51 -90 -10
-33 -9 -37 18 -59 17 -13 34 -23 39 -21 8 3 52 139 91 282 7 28 16 57 20 66 6
17 -52 70 -77 68 -7 0 -33 -15 -58 -32z m37 -81 c-3 -8 -11 -32 -18 -54 -6
-23 -17 -43 -24 -46 -13 -4 -74 39 -65 47 21 19 95 67 103 67 5 0 7 -6 4 -14z"/>
<path d="M9282 9878 l-22 -22 37 -38 36 -37 -89 -106 c-49 -58 -90 -111 -92
-118 -1 -7 11 -23 29 -36 26 -19 33 -21 43 -10 7 8 47 55 90 106 42 51 81 95
86 98 6 3 26 -6 46 -21 28 -22 40 -25 52 -17 36 22 23 47 -59 113 -44 36 -92
75 -108 87 l-27 23 -22 -22z"/>
<path d="M3206 9841 c-27 -28 -28 -31 -21 -104 4 -42 5 -80 1 -85 -3 -6 -36
-2 -83 9 -75 17 -79 17 -102 1 -53 -39 -52 -41 73 -181 64 -72 120 -131 124
-131 13 1 52 38 52 50 0 7 -32 48 -71 91 -40 44 -69 82 -65 86 3 3 36 -1 73
-10 36 -9 70 -14 75 -11 5 3 6 39 2 80 -4 41 -3 74 2 74 5 0 40 -36 78 -80 39
-44 75 -80 80 -80 19 1 58 39 54 54 -4 17 -225 266 -236 266 -5 0 -21 -13 -36
-29z"/>
<path d="M9452 9528 l-122 -132 30 -31 31 -30 66 70 c36 39 93 98 127 132 l60
63 -29 30 c-16 16 -31 30 -34 30 -4 0 -61 -59 -129 -132z"/>
<path d="M9635 9463 c-74 -39 -135 -121 -135 -183 0 -86 104 -190 188 -190 38
0 129 57 166 103 27 34 31 47 31 100 0 72 -21 110 -88 158 -46 34 -112 39
-162 12z m119 -73 c15 -5 34 -25 43 -45 16 -33 16 -37 0 -70 -21 -44 -91 -95
-129 -95 -32 0 -88 49 -88 77 0 35 54 103 105 131 25 14 37 15 69 2z"/>
<path d="M2690 9345 c-41 -46 -76 -88 -77 -92 -1 -4 24 -30 56 -58 32 -27 92
-81 135 -119 l77 -69 24 23 c14 13 25 30 25 38 0 7 -21 33 -46 56 l-47 42 42
47 c22 27 41 52 41 56 0 4 -9 16 -20 26 -20 18 -22 18 -70 -30 l-50 -49 -30
29 -29 30 50 58 c50 56 51 58 34 77 -10 11 -23 20 -29 20 -7 0 -45 -38 -86
-85z"/>
<path d="M9884 9114 c-60 -48 -119 -93 -131 -101 -13 -9 -23 -23 -23 -33 0
-18 30 -50 46 -50 5 0 43 27 84 60 41 33 76 55 78 50 2 -5 -9 -56 -24 -112
-39 -148 -38 -147 -19 -168 10 -11 23 -20 29 -19 18 0 271 204 273 220 2 8 -6
24 -17 37 l-19 23 -81 -61 c-45 -34 -83 -60 -85 -58 -5 5 50 211 60 227 9 16
-26 71 -46 71 -9 0 -65 -39 -125 -86z"/>
<path d="M2501 9103 c-44 -22 -99 -98 -106 -148 -14 -87 64 -185 168 -215 72
-20 135 8 183 79 55 83 49 156 -19 223 -76 75 -155 96 -226 61z m92 -77 c51
-21 107 -79 107 -111 0 -63 -55 -107 -112 -90 -40 13 -105 73 -111 102 -7 35
17 87 46 101 29 14 33 14 70 -2z"/>
<path d="M10259 8695 c-43 -23 -54 -64 -39 -147 11 -61 10 -72 -3 -86 -14 -14
-18 -14 -41 1 -23 15 -36 43 -50 110 l-7 28 -29 -18 c-39 -22 -39 -52 0 -120
50 -87 115 -115 180 -76 42 24 54 54 45 110 -13 88 -11 115 8 127 15 9 22 6
42 -16 13 -15 26 -45 30 -67 8 -45 18 -50 54 -22 24 18 24 20 11 62 -8 24 -33
63 -56 86 -34 37 -46 43 -80 43 -21 -1 -51 -7 -65 -15z"/>
<path d="M2186 8678 c-23 -32 -20 -51 14 -111 17 -30 30 -57 30 -60 0 -4 -33
-7 -74 -7 l-74 0 -25 -42 c-14 -24 -23 -47 -20 -51 5 -8 181 -1 213 8 9 3 46
-13 84 -35 37 -22 72 -40 77 -40 9 0 39 52 39 67 0 5 -29 26 -63 46 -60 35
-67 43 -121 142 -32 58 -59 105 -61 105 -2 0 -11 -10 -19 -22z"/>
<path d="M10464 8362 c-58 -106 -60 -107 -126 -142 -71 -37 -75 -43 -56 -85
14 -32 26 -32 98 6 l59 30 120 -7 c67 -4 121 -4 121 0 0 4 -7 20 -15 36 -13
25 -22 30 -53 30 -54 0 -112 11 -112 21 0 5 16 34 36 64 35 52 36 56 24 87
-31 77 -32 76 -96 -40z"/>
<path d="M1938 8229 c-32 -66 -58 -126 -58 -133 0 -7 11 -18 25 -24 23 -11 26
-9 45 28 11 21 24 41 29 44 5 3 63 -21 130 -54 67 -33 126 -60 131 -60 10 0
40 52 40 68 0 4 -59 36 -131 71 -80 38 -129 67 -126 74 3 7 12 29 21 49 15 35
15 38 -3 48 -11 5 -26 10 -33 10 -7 0 -39 -54 -70 -121z"/>
<path d="M10601 8046 c-38 -21 -50 -55 -51 -137 0 -59 -4 -78 -15 -83 -38 -14
-66 26 -69 100 -2 43 -5 49 -22 45 -48 -8 -56 -20 -49 -69 22 -150 140 -215
224 -124 21 23 23 33 19 93 -6 73 3 99 32 99 29 0 55 -47 54 -97 -1 -47 0 -48
39 -30 37 17 40 31 21 96 -29 100 -110 148 -183 107z"/>
<path d="M2121 7899 c-13 -33 -29 -63 -37 -66 -8 -3 -70 18 -139 46 -69 28
-128 51 -131 51 -10 0 -35 -73 -27 -80 4 -4 40 -20 78 -35 39 -15 84 -33 100
-41 71 -32 139 -55 150 -50 7 2 22 30 35 63 13 32 32 77 42 101 22 49 13 72
-27 72 -18 0 -26 -11 -44 -61z"/>
<path d="M10784 7765 c-3 -8 0 -31 6 -51 7 -19 8 -39 4 -43 -5 -4 -67 -27
-139 -51 -71 -24 -131 -44 -133 -45 -3 -3 19 -69 27 -77 3 -4 65 13 136 38 72
24 135 44 141 44 6 0 17 -21 24 -46 12 -42 15 -45 39 -39 14 4 29 10 33 14 5
4 -12 65 -37 136 -25 72 -45 131 -45 133 0 10 -52 -1 -56 -13z"/>
<path d="M1722 7714 c-12 -41 -24 -33 132 -84 131 -43 154 -68 125 -134 -17
-37 -53 -40 -149 -10 -47 14 -98 30 -115 35 -16 5 -35 9 -42 9 -15 0 -38 -69
-27 -80 19 -17 235 -80 274 -80 112 0 186 195 106 276 -24 24 -239 104 -279
104 -7 0 -19 -16 -25 -36z"/>
<path d="M10825 7404 c-49 -13 -120 -31 -157 -41 -40 -9 -68 -22 -68 -29 0
-13 31 -143 48 -199 7 -26 13 -30 38 -27 16 2 30 5 32 7 2 1 -5 37 -16 78
l-18 76 27 12 c42 17 53 8 69 -57 15 -55 17 -59 44 -57 16 1 31 4 34 7 2 3 -2
34 -11 68 -9 35 -13 66 -9 69 4 4 21 10 38 13 l31 7 18 -68 c22 -82 26 -87 60
-79 31 8 31 4 -6 154 -27 107 -19 103 -154 66z"/>
<path d="M1601 7309 c-28 -50 -39 -152 -19 -188 34 -62 161 -120 232 -105 60
12 103 49 125 109 36 97 22 171 -32 163 -19 -3 -21 -9 -18 -53 2 -39 -3 -58
-21 -85 -21 -31 -29 -35 -73 -38 -73 -4 -137 30 -149 80 -8 32 -5 45 18 89 21
41 24 54 14 61 -30 18 -54 8 -77 -33z"/>
<path d="M10920 7074 c-41 -7 -106 -19 -145 -25 -96 -15 -95 -15 -95 -46 0
-49 9 -53 80 -42 36 6 88 13 115 16 l50 6 -20 -24 c-10 -13 -35 -41 -54 -61
-19 -21 -33 -39 -30 -42 2 -2 32 -18 67 -35 34 -17 62 -35 62 -40 0 -4 -35
-14 -77 -21 -134 -21 -138 -23 -141 -56 -4 -55 4 -58 114 -40 269 44 254 40
254 65 0 47 -20 71 -90 106 -38 19 -70 39 -70 43 0 4 25 32 55 62 55 55 63 74
49 128 -7 26 -17 26 -124 6z"/>
<path d="M1770 6946 c-30 -7 -99 -21 -152 -31 -103 -18 -100 -16 -113 -83 -6
-28 -3 -34 22 -48 15 -8 91 -51 168 -94 77 -43 143 -76 146 -72 4 4 9 19 13
34 5 24 1 31 -30 50 -35 23 -36 23 -31 81 6 68 16 83 62 91 24 5 35 12 35 24
0 9 3 27 6 40 6 20 3 22 -32 21 -22 0 -64 -6 -94 -13z m-40 -136 c0 -49 -12
-51 -83 -12 l-51 27 50 12 c82 19 84 18 84 -27z"/>
<path d="M1487 6633 c-7 -11 -16 -76 -23 -164 l-6 -76 109 -12 c59 -6 142 -12
183 -14 l75 -2 3 43 3 42 -43 1 c-24 1 -54 4 -68 8 -24 7 -25 10 -22 74 l4 67
-36 0 -35 0 -3 -62 -3 -63 -44 -3 -44 -3 6 80 c4 65 2 81 -10 85 -20 8 -41 7
-46 -1z"/>
<path d="M10973 6598 c-36 -9 -48 -27 -78 -113 -21 -63 -42 -78 -72 -54 -15
13 -14 60 3 132 6 27 5 28 -26 22 -47 -8 -48 -9 -55 -68 -9 -72 8 -129 47
-162 28 -23 39 -26 80 -23 26 3 54 11 63 18 8 7 24 43 35 80 22 73 38 94 64
84 28 -11 33 -62 11 -131 -6 -20 -4 -23 21 -23 44 0 54 12 60 66 7 58 -8 124
-35 148 -26 24 -79 34 -118 24z"/>
<path d="M1595 6056 c-31 -64 -62 -116 -68 -116 -7 -1 -48 -7 -92 -15 -44 -8
-95 -15 -112 -15 -18 0 -33 -3 -33 -7 0 -4 41 -49 91 -100 69 -70 90 -97 84
-110 -11 -29 -39 -212 -33 -218 3 -3 55 20 115 51 l109 58 108 -58 c60 -31
110 -55 113 -53 4 5 -25 209 -33 230 -2 7 36 53 86 102 49 49 90 92 90 95 0 3
-46 12 -102 19 -57 7 -113 15 -125 18 -17 4 -37 34 -79 117 -31 61 -58 112
-59 114 -2 2 -29 -48 -60 -112z"/>
<path d="M10955 6156 c-5 -6 -30 -53 -55 -104 -25 -52 -50 -98 -56 -103 -10
-8 -96 -24 -196 -36 -27 -3 -48 -10 -48 -15 0 -5 39 -47 86 -92 l87 -83 -21
-124 c-11 -68 -19 -126 -16 -128 2 -2 53 22 113 53 126 65 112 66 250 -13 40
-22 77 -41 83 -41 11 0 10 5 -17 155 -8 44 -15 83 -15 86 0 4 38 44 85 90 47
45 85 89 85 96 0 7 -11 13 -27 13 -24 0 -76 8 -182 29 -32 6 -38 14 -90 118
-40 78 -59 108 -66 99z"/>
<path d="M10641 4969 c-19 -55 -14 -73 34 -113 25 -21 45 -41 45 -46 0 -4 -27
-13 -60 -20 -68 -14 -71 -17 -92 -83 -20 -61 -11 -66 69 -39 156 53 152 52
227 32 38 -11 72 -17 77 -14 13 8 31 86 22 94 -4 4 -35 15 -68 25 -53 15 -70
26 -151 107 l-91 90 -12 -33z"/>
<path d="M1865 4825 c-38 -13 -110 -35 -158 -51 -49 -15 -91 -33 -94 -40 -3
-7 1 -30 7 -50 14 -40 12 -40 118 -6 34 11 62 16 62 12 0 -4 -27 -49 -60 -100
-58 -88 -60 -93 -50 -126 9 -25 17 -33 28 -30 62 17 291 89 310 97 20 8 23 14
17 42 -12 56 -23 60 -99 37 -37 -12 -72 -20 -77 -18 -5 2 18 41 51 88 52 72
60 88 54 115 -6 31 -21 56 -33 54 -3 0 -37 -11 -76 -24z"/>
<path d="M10513 4528 c-8 -11 -75 -179 -96 -240 -5 -13 2 -22 24 -33 36 -19
45 -14 64 31 l14 34 66 -25 c36 -13 94 -36 129 -49 49 -18 67 -22 74 -13 16
21 33 80 25 88 -5 4 -57 27 -118 50 -60 23 -115 46 -122 51 -9 7 -8 19 2 49
14 39 14 39 -15 54 -35 18 -35 18 -47 3z"/>
<path d="M1937 4295 c-92 -7 -170 -15 -173 -18 -4 -3 2 -23 12 -44 14 -28 26
-38 44 -40 14 0 30 -1 36 -2 7 -1 22 -26 34 -57 l23 -56 -23 -18 c-22 -17 -23
-21 -12 -58 24 -78 17 -82 256 135 l60 54 -13 37 c-19 55 -39 82 -59 81 -9 -1
-92 -7 -185 -14z m82 -121 l-34 -35 -17 22 c-31 38 -23 49 34 49 l52 0 -35
-36z"/>
<path d="M10330 4100 c-11 -23 -18 -45 -15 -50 3 -5 31 -21 63 -36 31 -14 97
-46 145 -70 48 -24 96 -44 106 -44 16 0 51 55 51 81 0 10 -299 159 -320 159
-5 0 -19 -18 -30 -40z"/>
<path d="M2242 4000 c-37 -23 -37 -20 -15 -65 9 -19 15 -36 12 -38 -2 -2 -56
-33 -119 -67 -63 -35 -117 -65 -119 -67 -6 -5 41 -93 50 -93 8 0 39 17 174 92
76 43 74 43 111 -18 9 -16 14 -16 42 -5 44 18 45 16 -28 146 -18 33 -42 76
-53 95 -10 19 -20 36 -21 37 -1 1 -16 -7 -34 -17z"/>
<path d="M10204 3863 c-46 -50 -69 -122 -54 -168 16 -49 62 -85 110 -85 32 0
48 8 91 46 54 48 72 51 77 15 3 -17 -9 -35 -42 -67 l-46 -44 32 -20 c44 -27
51 -26 87 15 89 101 87 208 -3 252 -45 21 -71 13 -134 -41 -55 -47 -82 -51
-82 -11 0 23 52 85 71 85 20 0 7 26 -22 43 -42 23 -46 22 -85 -20z"/>
<path d="M2322 3544 l-142 -94 14 -28 c38 -73 33 -72 142 -2 182 116 204 132
204 141 0 19 -46 79 -60 78 -8 0 -79 -43 -158 -95z"/>
<path d="M10010 3502 c-22 -12 -60 -54 -102 -112 -38 -52 -68 -97 -68 -100 1
-3 66 -52 147 -109 l146 -104 28 34 c16 19 28 41 28 49 0 8 -18 28 -40 43 -57
39 -47 52 41 52 l73 0 34 44 c18 25 32 49 30 55 -2 6 -35 13 -72 16 -69 5 -69
5 -76 37 -9 47 -33 78 -72 97 -44 20 -54 20 -97 -2z m64 -121 c19 -21 11 -55
-20 -83 -18 -16 -21 -15 -52 11 l-34 27 27 32 c30 36 54 40 79 13z"/>
<path d="M2499 3344 c-78 -51 -104 -93 -103 -165 1 -47 7 -65 31 -98 81 -110
167 -124 275 -45 94 69 111 169 44 256 -74 98 -153 115 -247 52z m152 -77 c52
-40 44 -97 -19 -141 -58 -39 -87 -42 -116 -12 -15 14 -26 34 -26 46 0 28 66
98 104 109 41 12 39 12 57 -2z"/>
<path d="M9660 3084 c-41 -47 -76 -91 -78 -98 -5 -20 266 -253 278 -239 3 5
38 45 78 89 40 45 72 89 72 98 0 8 -12 23 -27 33 l-26 17 -47 -53 c-43 -49
-48 -52 -68 -40 -29 18 -28 24 13 72 19 22 35 45 35 51 0 6 -12 19 -26 30
l-26 18 -43 -42 c-37 -37 -45 -40 -64 -31 -11 7 -21 14 -21 18 0 3 21 30 46
60 l46 54 -23 25 c-12 13 -27 24 -33 24 -6 0 -45 -39 -86 -86z"/>
<path d="M2797 2917 l-128 -122 35 -34 35 -34 67 59 67 59 -6 -55 c-21 -174
-21 -183 6 -209 l26 -23 108 103 c59 57 118 116 130 130 l22 27 -29 31 c-17
17 -33 31 -36 31 -3 0 -33 -26 -66 -57 l-61 -58 7 60 c4 33 10 82 15 108 7 44
6 52 -16 78 -14 16 -30 29 -36 29 -7 0 -70 -55 -140 -123z"/>
<path d="M9440 2846 l-33 -35 48 -99 c26 -55 46 -105 44 -111 -2 -6 -43 12
-96 44 -51 30 -98 55 -105 55 -18 0 -88 -59 -88 -73 0 -13 315 -177 338 -177
14 0 82 65 82 78 0 10 -98 268 -122 322 -17 38 -27 38 -68 -4z"/>
<path d="M3190 2550 c-85 -50 -159 -92 -165 -94 -13 -4 33 -54 57 -62 10 -3
25 0 33 6 20 16 53 6 94 -30 33 -28 34 -31 24 -65 -11 -34 -10 -36 29 -66 21
-18 43 -28 47 -23 4 5 16 32 26 59 9 28 23 64 30 80 48 112 75 186 74 202 0
16 -72 83 -88 83 -3 -1 -76 -41 -161 -90z m115 -67 c-3 -15 -12 -37 -20 -47
-15 -19 -15 -19 -40 4 l-25 24 42 27 c23 16 44 26 46 24 2 -2 1 -16 -3 -32z"/>
<path d="M9052 2512 c-18 -15 -32 -30 -32 -35 0 -15 212 -277 224 -277 7 0 28
13 46 29 l33 28 -24 34 c-51 73 -192 244 -203 246 -6 2 -26 -10 -44 -25z"/>
<path d="M3619 2387 c-70 -99 -179 -265 -179 -273 0 -5 46 -40 101 -78 l101
-69 24 29 c13 16 23 32 24 35 0 3 -25 23 -55 43 -30 20 -55 41 -55 46 0 12 20
45 70 115 20 28 46 66 58 86 l22 36 -40 27 c-48 31 -51 31 -71 3z"/>
<path d="M8852 2358 c-18 -11 -32 -25 -32 -31 0 -7 18 -40 39 -74 22 -34 37
-63 35 -66 -3 -3 -31 5 -62 17 -128 49 -134 50 -175 26 -20 -12 -37 -24 -37
-26 0 -8 191 -293 200 -299 9 -6 80 35 80 45 0 3 -20 37 -46 75 -25 38 -41 71
-36 73 5 1 51 -11 101 -28 106 -35 118 -36 150 -11 l24 18 -34 54 c-126 196
-155 239 -165 243 -6 2 -25 -5 -42 -16z"/>
<path d="M8432 2100 l-32 -20 61 -122 c51 -101 59 -125 51 -144 -13 -27 -66
-41 -88 -23 -8 6 -40 61 -70 121 -31 59 -60 108 -65 108 -19 0 -89 -40 -89
-51 0 -21 111 -227 135 -252 44 -43 106 -43 192 1 56 29 93 79 93 126 0 48
-114 276 -139 276 -9 0 -31 -9 -49 -20z"/>
<path d="M4163 2068 c-26 -43 -143 -293 -143 -307 0 -15 92 -66 212 -119 7 -3
38 50 38 66 0 4 -27 21 -60 37 -61 29 -74 51 -46 74 12 10 25 7 63 -13 26 -14
51 -26 56 -26 10 0 37 62 31 72 -3 4 -24 16 -48 27 -49 21 -59 32 -50 55 9 23
37 20 94 -9 27 -14 52 -25 54 -25 10 0 37 60 31 69 -4 8 -209 111 -219 111 -3
0 -8 -6 -13 -12z"/>
<path d="M4560 1869 c-98 -41 -161 -219 -104 -296 33 -44 102 -82 164 -89 53
-6 56 -5 68 20 21 46 16 56 -29 56 -72 0 -119 44 -110 105 6 43 42 103 70 115
35 14 83 -3 121 -44 l24 -27 13 23 c27 49 8 85 -63 121 -41 21 -123 29 -154
16z"/>
<path d="M7723 1802 c-86 -35 -122 -94 -102 -166 14 -52 57 -76 137 -76 48 0
64 -4 69 -16 10 -26 -14 -38 -82 -42 -72 -5 -69 -1 -44 -69 10 -28 39 -29 117
-7 92 27 135 87 116 162 -13 52 -51 75 -129 78 -87 4 -103 15 -69 48 10 11 34
16 74 16 l59 0 -11 33 c-6 17 -15 38 -21 45 -13 17 -64 14 -114 -6z"/>
<path d="M4961 1712 c-82 -44 -124 -202 -74 -282 41 -66 143 -101 226 -79 83
22 121 85 122 202 l0 78 -41 39 c-64 60 -166 78 -233 42z m149 -92 c48 -48 0
-190 -65 -190 -11 0 -31 7 -43 16 -18 12 -22 25 -22 65 0 105 73 166 130 109z"/>
<path d="M7328 1690 c-52 -15 -89 -45 -109 -88 -18 -36 -20 -53 -15 -105 18
-161 126 -225 276 -164 46 18 56 27 58 49 2 15 -2 36 -8 48 -11 20 -11 20 -48
-5 -50 -34 -104 -34 -131 1 -26 33 -43 96 -35 128 11 45 40 61 110 60 64 -1
64 -1 57 25 -13 55 -21 61 -76 60 -29 0 -64 -4 -79 -9z"/>
<path d="M5401 1578 c-24 -132 -34 -205 -35 -253 -1 -48 0 -49 33 -56 46 -10
61 -2 61 32 0 15 5 52 11 81 13 61 10 64 87 -67 44 -75 49 -80 85 -83 20 -2
37 0 37 5 0 4 11 75 25 157 33 200 34 193 -16 201 -22 4 -43 4 -47 1 -3 -4
-11 -37 -17 -73 -6 -37 -15 -68 -21 -70 -5 -2 -31 37 -57 87 -27 49 -54 90
-61 90 -8 0 -27 3 -43 6 -30 6 -30 6 -42 -58z"/>
<path d="M6970 1611 c-31 -5 -35 -9 -34 -36 1 -45 45 -319 52 -327 4 -3 28 -4
55 -1 33 4 47 10 47 21 0 18 -38 262 -48 312 -8 37 -17 41 -72 31z"/>
<path d="M6667 1566 c-7 -8 -28 -37 -46 -65 -18 -28 -36 -51 -40 -51 -4 0 -27
25 -51 55 l-45 55 -55 -3 -55 -2 2 -80 c1 -44 4 -126 8 -182 l7 -103 50 0 49
0 -3 105 c-2 58 0 105 3 105 4 0 25 -20 48 -45 23 -25 45 -45 49 -45 4 0 22
23 40 50 17 28 36 50 41 50 8 0 21 -95 21 -161 l0 -39 55 0 55 0 0 33 c0 17
-5 101 -12 185 l-11 152 -48 0 c-28 0 -53 -6 -62 -14z"/>
<path d="M5975 1563 c-30 -8 -73 -41 -87 -66 -26 -48 -37 -128 -26 -179 23
-100 140 -159 245 -124 28 9 60 27 71 39 79 84 64 259 -26 310 -33 20 -138 31
-177 20z m121 -104 c39 -43 15 -168 -34 -183 -30 -10 -71 11 -83 41 -14 37 -4
121 17 144 23 26 76 25 100 -2z"/>
</g>
</svg>
